# xmcd
# Track frame offsets:
# 150
# 12470
# 24378
# 35269
# 48817
# 63123
# 74880
# 86634
# 98948
# 111365
# 121129
# 133285
# 144200
# 157295
# 174153
# 187149
# 196881
# 207173
# 216490
# 226843
# 238649
# 250062
# 261972
# 272361
# 283491
#
# Disc length: 3937 seconds
# Revision: 3
# Processed by: cddbd v1.5.2PL0 Copyright (c) Steve Scherf et al.
# Submitted via: VisiTrax 2.11.3.279 - For more info visit www.synapsa.com
#
DISCID=760f5f19
DTITLE=Various (1930's-1960's) Blues and Soul and R&B and Rock n Roll Artists - Tel
DTITLE=l Me What'd I Say - The Atlantic Story: 50 Original Recordings 1955-19
DTITLE=60: CD2 of 2: *ReMastered Tracks
DYEAR=2011
DGENRE=R&B
TTITLE0=Coasters The - Searchin'*
TTITLE1=Professor Longhair - Tipitina*
TTITLE2=Chords The - Sh-Boom*
TTITLE3=Big Joe Turner - Shake, Rattle And Roll*
TTITLE4=Ray Charles - What'd I Say*
TTITLE5=Chuck Willis - It's Too Late*
TTITLE6=Clovers The - Blue Velvet*
TTITLE7=Ivory Joe Hunter - Since I Met You Baby*
TTITLE8=Cookies The - Passing Time*
TTITLE9=Clyde McPhatter - Thirty Days*
TTITLE10=Penguins The - Pledge Of Love*
TTITLE11=Young Jessie - Shuffle In The Gravel*
TTITLE12=Big Joe Turner - Corrine Corrina*
TTITLE13=Ray Charles - Don't Let The Sun Catch You Crying*
TTITLE14=Robins The - Just Like A Fool*
TTITLE15=LaVern Baker - Jim Dandy Got Married*
TTITLE16=Dean Beard - Party Party*
TTITLE17=Clovers The - Love Love Love*
TTITLE18=Sticks McGhee - Drinkin' Wine Spo-Dee-O-Dee*
TTITLE19=T-Bone Walker - Papa Ain't Salty*
TTITLE20=Drifters The - Fools Fall In Love*
TTITLE21=Regals The - Got The Water Boiling*
TTITLE22=Bobbettes The - Don't Say Goodnight*
TTITLE23=Drifters The - Save The Last Dance For Me*
TTITLE24=Cardinals The - The End Of The Story*
EXTD=Compilation and ReMastering: One Day Music: 2011
EXTT0=
EXTT1=
EXTT2=
EXTT3=
EXTT4=
EXTT5=
EXTT6=
EXTT7=
EXTT8=
EXTT9=
EXTT10=
EXTT11=
EXTT12=
EXTT13=
EXTT14=
EXTT15=
EXTT16=
EXTT17=
EXTT18=
EXTT19=
EXTT20=
EXTT21=
EXTT22=
EXTT23=
EXTT24=
PLAYORDER=
